<?xml version="1.0" standalone="no"?>
<!DOCTYPE svg PUBLIC "-//W3C//DTD SVG 20010904//EN"
 "http://www.w3.org/TR/2001/REC-SVG-20010904/DTD/svg10.dtd">
<svg version="1.0" xmlns="http://www.w3.org/2000/svg"
 width="500.000000pt" height="500.000000pt" viewBox="0 0 500.000000 500.000000"
 preserveAspectRatio="xMidYMid meet">

<g transform="translate(0.000000,500.000000) scale(0.100000,-0.100000)"
fill="#000000" stroke="none">
<path d="M2594 4081 c-33 -20 -64 -81 -41 -81 7 0 21 7 31 15 23 17 79 20 107
5 28 -15 23 -27 -16 -40 -41 -13 -75 -53 -75 -86 0 -28 33 -33 64 -9 28 21 36
19 36 -12 0 -30 -32 -89 -59 -111 -35 -28 -89 -51 -148 -62 -82 -16 -179 5
-299 65 -49 25 -92 45 -96 45 -14 0 -9 -30 12 -70 l20 -39 -30 -74 c-34 -85
-53 -199 -45 -266 6 -43 3 -50 -36 -101 -53 -69 -92 -153 -93 -199 -1 -39 -8
-35 98 -53 17 -3 23 11 45 87 l26 90 60 28 c33 16 80 45 105 65 76 60 72 58
65 31 -5 -20 -1 -27 19 -37 42 -19 137 -24 191 -10 48 13 50 15 48 47 l-1 33
31 -30 c41 -40 112 -72 159 -72 44 0 47 -4 58 -81 5 -34 11 -63 13 -66 3 -2
28 -1 56 3 l51 7 0 39 c0 43 -32 146 -58 185 -9 14 -30 32 -47 39 -17 7 -43
25 -58 40 -29 29 -36 57 -13 48 17 -6 29 30 48 139 l12 68 -32 25 c-18 14 -37
34 -43 45 -10 19 -9 19 28 -1 21 -11 46 -20 56 -20 28 0 86 27 129 61 31 25
42 29 48 19 5 -8 6 -18 4 -22 -3 -4 -1 -8 5 -8 17 0 41 43 41 76 0 28 -3 31
-24 27 -24 -5 -66 11 -66 25 0 4 14 8 32 8 36 1 68 34 68 70 0 32 -10 35 -77
26 -32 -4 -79 -6 -105 -4 -42 4 -50 8 -69 39 -42 67 -167 96 -235 54z"/>
<path d="M1321 2928 c-51 -14 -157 -126 -241 -255 l-73 -112 -36 15 c-104 44
-140 149 -75 220 27 28 27 52 0 89 -14 20 -15 20 -41 -5 -41 -38 -65 -93 -65
-147 0 -79 49 -138 153 -182 l47 -20 -56 -88 c-32 -49 -86 -134 -122 -190 -35
-57 -68 -103 -72 -103 -5 0 -48 10 -97 21 -257 62 -473 -51 -473 -246 1 -171
156 -241 339 -155 72 34 170 129 246 238 28 39 55 72 61 72 5 0 62 -30 125
-66 202 -116 234 -133 294 -154 64 -22 167 -26 228 -9 42 11 117 73 117 95 0
18 -5 18 -70 -7 -84 -32 -202 -30 -304 6 -114 39 -371 161 -368 174 1 6 55 99
120 206 l117 195 40 0 c22 0 68 7 103 15 168 40 284 149 286 269 1 105 -74
156 -183 124z m109 -43 c29 -35 -37 -167 -117 -232 -50 -40 -129 -80 -177 -89
l-38 -7 52 79 c80 119 149 203 193 235 45 32 69 36 87 14z m-747 -755 c20 -6
37 -15 37 -20 0 -23 -146 -223 -195 -269 -103 -94 -221 -104 -269 -22 -63 108
27 274 174 322 32 11 204 3 253 -11z"/>
<path d="M3358 2926 c-68 -24 -124 -64 -195 -139 -68 -72 -168 -219 -179 -264
-8 -29 -19 -29 -49 2 -39 38 -37 83 6 137 29 37 29 37 12 73 -20 41 -23 42
-50 13 -40 -45 -55 -88 -51 -146 4 -49 10 -60 44 -92 22 -20 45 -39 52 -41 8
-3 6 -21 -8 -66 -43 -139 -36 -245 21 -298 28 -28 36 -30 108 -30 68 0 83 3
119 28 23 15 42 24 42 20 0 -27 -99 -199 -142 -247 -88 -99 -209 -136 -263
-81 -30 29 -31 49 -5 97 21 40 13 59 -14 29 -26 -29 -38 -81 -26 -117 16 -48
63 -68 141 -62 148 12 287 135 383 339 62 131 114 349 84 349 -30 0 -60 -35
-102 -123 -72 -149 -146 -217 -222 -203 -85 16 -100 134 -37 304 l16 42 61 0
c260 1 476 161 476 352 0 52 -4 63 -28 88 -47 46 -124 61 -194 36z m137 -46
c56 -62 -27 -217 -165 -308 -86 -58 -260 -110 -260 -78 0 44 201 304 278 359
73 53 116 61 147 27z"/>
<path d="M2042 2760 c-19 -4 -37 -12 -42 -16 -4 -5 -52 -121 -106 -259 -54
-137 -107 -261 -118 -274 -37 -43 -137 -101 -172 -101 -52 0 -71 36 -55 103
15 65 50 125 96 166 37 32 59 39 70 21 10 -15 -31 -75 -60 -88 -36 -17 -34
-52 4 -52 55 0 103 79 87 144 -8 34 -65 52 -116 37 -68 -20 -180 -168 -180
-238 0 -23 -52 -79 -84 -89 -54 -18 -44 47 34 219 52 115 52 122 -6 115 -25
-3 -32 -15 -85 -143 -72 -171 -85 -190 -130 -190 -34 0 -34 0 -33 47 0 34 13
73 52 153 29 59 52 113 52 121 0 19 -64 19 -83 0 -30 -30 -101 -210 -105 -267
-4 -51 -2 -58 23 -77 36 -29 81 -28 139 3 l48 25 20 -25 c26 -34 65 -32 116 4
36 27 42 28 54 14 32 -39 129 -55 185 -31 15 7 48 25 72 42 37 24 43 26 36 10
-4 -10 -10 -29 -13 -42 -4 -22 -2 -23 38 -20 42 3 44 4 60 53 46 135 121 235
189 250 38 8 51 1 51 -29 0 -45 -32 -70 -96 -76 l-59 -5 -3 -47 c-4 -58 17
-102 61 -128 53 -33 115 -22 161 29 l19 21 18 -30 c21 -34 53 -45 110 -37 43
6 46 0 25 -42 -14 -27 -15 -27 -83 -20 -242 26 -463 -95 -463 -255 0 -111 78
-185 196 -186 152 0 263 90 369 301 l44 86 47 7 c113 15 193 66 236 150 24 47
38 179 19 190 -7 5 -11 -4 -11 -27 0 -75 -47 -180 -100 -225 -45 -38 -170 -75
-170 -49 0 7 36 107 80 221 44 114 80 212 80 217 0 14 -53 11 -77 -6 -12 -9
-42 -68 -74 -147 -49 -123 -90 -188 -118 -188 -16 0 -41 30 -41 49 0 28 34
120 74 198 47 94 47 103 -1 96 -21 -3 -43 -10 -49 -15 -7 -5 -28 -48 -49 -96
-53 -127 -56 -132 -106 -184 -50 -52 -77 -60 -108 -29 -21 21 -37 81 -28 105
3 7 21 16 40 20 65 12 117 72 117 135 0 67 -77 83 -148 31 -23 -17 -42 -28
-42 -26 0 2 32 85 70 184 39 99 70 185 70 191 0 12 -1 12 -48 1z m230 -788
c15 -6 13 -16 -19 -92 -72 -175 -157 -268 -251 -278 -95 -9 -162 47 -162 136
0 102 92 195 225 228 54 13 179 17 207 6z"/>
<path d="M4501 2761 c-31 -6 -36 -11 -61 -81 -16 -41 -32 -74 -37 -73 -4 1
-50 21 -102 43 -239 104 -427 106 -596 5 -79 -48 -103 -71 -88 -86 9 -9 16 -9
25 -1 8 6 56 25 108 43 173 58 352 51 556 -23 l85 -30 -7 -32 c-11 -56 -75
-219 -116 -299 -59 -114 -124 -159 -149 -103 -15 32 1 102 45 202 l35 79 -25
3 c-43 6 -67 -21 -103 -113 -51 -132 -114 -201 -165 -182 -46 18 12 190 90
270 31 32 43 38 66 33 33 -7 37 8 7 25 -32 17 -87 -3 -142 -51 -25 -22 -69
-51 -98 -65 l-53 -24 -18 29 c-12 20 -26 30 -42 30 -27 0 -56 -24 -56 -46 0
-16 35 -54 50 -54 19 0 -28 -76 -69 -113 -104 -94 -171 -4 -102 138 51 103 97
142 156 131 42 -8 48 10 8 25 -112 42 -272 -109 -273 -258 0 -87 57 -127 156
-109 44 9 121 82 149 143 16 35 28 45 64 58 25 8 45 15 46 15 1 0 -6 -24 -16
-52 -10 -29 -18 -63 -19 -76 0 -30 25 -78 45 -86 48 -18 141 8 174 48 11 13
17 10 48 -21 33 -32 40 -35 80 -30 29 3 57 15 81 34 l37 30 31 -34 c26 -27 38
-33 73 -33 53 0 88 18 133 68 83 91 74 122 -9 34 -61 -64 -97 -81 -132 -63
-48 26 -37 108 40 296 l49 120 78 -3 c56 -3 94 2 139 16 68 22 153 67 153 82
0 17 -20 11 -98 -27 -68 -34 -84 -38 -153 -38 -43 0 -83 5 -89 11 -8 8 -1 34
25 95 35 83 42 110 28 108 -5 -1 -23 -4 -42 -8z m-765 -442 c3 -6 1 -16 -4
-21 -13 -13 -45 8 -36 23 7 12 31 11 40 -2z"/>
</g>
</svg>
